<svg id="svg" version="1.1" xmlns="http://www.w3.org/2000/svg" xmlns:xlink="http://www.w3.org/1999/xlink" width="400" height="400" viewBox="0, 0, 400,400"><g id="svgg"><path id="path0" d="M140.500 31.996 L 139.200 32.788 139.208 111.894 C 139.219 211.204,139.386 207.621,134.252 218.400 C 132.947 221.140,130.517 224.214,128.859 225.222 C 128.167 225.644,127.600 226.169,127.600 226.389 C 127.600 226.610,126.325 227.467,124.766 228.295 C 123.207 229.123,121.362 230.107,120.666 230.482 C 115.813 233.095,97.898 233.135,93.054 230.543 C 92.290 230.135,90.795 229.324,89.731 228.743 C 87.356 227.445,81.674 221.876,80.945 220.131 C 80.651 219.427,79.968 218.199,79.427 217.402 C 78.887 216.606,78.139 214.580,77.765 212.900 C 77.391 211.221,76.655 208.907,76.130 207.758 C 75.306 205.960,75.118 204.681,74.770 198.535 C 74.214 188.704,74.250 188.866,72.476 188.111 C 70.600 187.313,61.057 187.961,56.400 189.202 C 54.750 189.642,52.149 190.186,50.621 190.411 C 46.186 191.063,46.246 190.935,46.555 199.200 C 46.987 210.741,47.428 214.814,48.531 217.453 C 49.071 218.744,49.797 221.192,50.146 222.893 C 50.497 224.609,51.225 226.659,51.780 227.499 C 52.331 228.331,53.039 229.866,53.353 230.910 C 53.667 231.954,54.481 233.442,55.162 234.218 C 55.843 234.993,56.400 235.823,56.400 236.061 C 56.400 238.043,66.257 248.070,70.201 250.100 C 70.861 250.440,71.738 251.089,72.148 251.543 C 72.558 251.996,73.818 252.667,74.947 253.034 C 76.076 253.401,77.553 254.113,78.230 254.617 C 78.906 255.121,80.479 255.722,81.726 255.952 C 82.972 256.183,85.151 256.835,86.569 257.402 C 93.122 260.024,120.773 260.048,126.482 257.437 C 127.681 256.888,129.777 256.260,131.140 256.041 C 132.503 255.821,134.158 255.257,134.818 254.788 C 135.477 254.318,137.029 253.578,138.266 253.143 C 139.504 252.708,141.075 251.934,141.758 251.423 C 142.441 250.912,143.630 250.175,144.400 249.785 C 150.001 246.949,158.693 237.176,161.995 230.000 C 162.450 229.010,163.284 227.335,163.847 226.277 C 164.411 225.220,165.197 222.790,165.595 220.877 C 165.993 218.965,166.696 216.531,167.158 215.469 C 167.787 214.024,168.104 212.057,168.416 207.669 C 168.645 204.441,169.044 200.180,169.302 198.200 C 169.644 195.577,169.805 172.599,169.897 113.551 L 170.022 32.502 168.651 31.851 C 166.360 30.764,142.317 30.888,140.500 31.996 M216.480 138.080 C 215.781 138.779,215.781 361.221,216.480 361.920 C 217.108 362.548,244.460 362.610,245.626 361.986 C 246.385 361.580,246.400 360.606,246.409 312.886 C 246.417 265.660,246.441 264.149,247.189 262.500 L 247.961 260.800 298.367 260.800 L 348.773 260.800 350.187 259.387 L 351.600 257.973 351.600 247.049 C 351.600 236.451,351.575 236.101,350.758 235.362 C 349.942 234.623,348.357 234.594,298.971 234.400 C 251.309 234.213,247.973 234.155,247.213 233.504 C 245.939 232.413,245.935 168.080,247.208 165.584 L 248.016 164.000 305.975 164.000 C 362.560 164.000,363.977 163.982,365.754 163.220 C 368.111 162.209,368.045 162.626,367.912 149.612 L 367.800 138.623 366.800 138.118 C 365.374 137.397,217.200 137.360,216.480 138.080 " stroke="none" fill="#04d8f8" fill-rule="evenodd"></path><path id="path1" d="M0.000 200.000 L 0.000 400.000 200.000 400.000 L 400.000 400.000 400.000 200.000 L 400.000 0.000 200.000 0.000 L 0.000 0.000 0.000 200.000 M168.651 31.851 L 170.022 32.502 169.897 113.551 C 169.805 172.599,169.644 195.577,169.302 198.200 C 169.044 200.180,168.645 204.441,168.416 207.669 C 168.104 212.057,167.787 214.024,167.158 215.469 C 166.696 216.531,165.993 218.965,165.595 220.877 C 165.197 222.790,164.411 225.220,163.847 226.277 C 163.284 227.335,162.450 229.010,161.995 230.000 C 158.693 237.176,150.001 246.949,144.400 249.785 C 143.630 250.175,142.441 250.912,141.758 251.423 C 141.075 251.934,139.504 252.708,138.266 253.143 C 137.029 253.578,135.477 254.318,134.818 254.788 C 134.158 255.257,132.503 255.821,131.140 256.041 C 129.777 256.260,127.681 256.888,126.482 257.437 C 120.773 260.048,93.122 260.024,86.569 257.402 C 85.151 256.835,82.972 256.183,81.726 255.952 C 80.479 255.722,78.906 255.121,78.230 254.617 C 77.553 254.113,76.076 253.401,74.947 253.034 C 73.818 252.667,72.558 251.996,72.148 251.543 C 71.738 251.089,70.861 250.440,70.201 250.100 C 66.257 248.070,56.400 238.043,56.400 236.061 C 56.400 235.823,55.843 234.993,55.162 234.218 C 54.481 233.442,53.667 231.954,53.353 230.910 C 53.039 229.866,52.331 228.331,51.780 227.499 C 51.225 226.659,50.497 224.609,50.146 222.893 C 49.797 221.192,49.071 218.744,48.531 217.453 C 47.428 214.814,46.987 210.741,46.555 199.200 C 46.246 190.935,46.186 191.063,50.621 190.411 C 52.149 190.186,54.750 189.642,56.400 189.202 C 61.057 187.961,70.600 187.313,72.476 188.111 C 74.250 188.866,74.214 188.704,74.770 198.535 C 75.118 204.681,75.306 205.960,76.130 207.758 C 76.655 208.907,77.391 211.221,77.765 212.900 C 78.139 214.580,78.887 216.606,79.427 217.402 C 79.968 218.199,80.651 219.427,80.945 220.131 C 81.674 221.876,87.356 227.445,89.731 228.743 C 90.795 229.324,92.290 230.135,93.054 230.543 C 97.898 233.135,115.813 233.095,120.666 230.482 C 121.362 230.107,123.207 229.123,124.766 228.295 C 126.325 227.467,127.600 226.610,127.600 226.389 C 127.600 226.169,128.167 225.644,128.859 225.222 C 130.517 224.214,132.947 221.140,134.252 218.400 C 139.386 207.621,139.219 211.204,139.208 111.894 L 139.200 32.788 140.500 31.996 C 142.317 30.888,166.360 30.764,168.651 31.851 M366.800 138.118 L 367.800 138.623 367.912 149.612 C 368.045 162.626,368.111 162.209,365.754 163.220 C 363.977 163.982,362.560 164.000,305.975 164.000 L 248.016 164.000 247.208 165.584 C 245.935 168.080,245.939 232.413,247.213 233.504 C 247.973 234.155,251.309 234.213,298.971 234.400 C 348.357 234.594,349.942 234.623,350.758 235.362 C 351.575 236.101,351.600 236.451,351.600 247.049 L 351.600 257.973 350.187 259.387 L 348.773 260.800 298.367 260.800 L 247.961 260.800 247.189 262.500 C 246.441 264.149,246.417 265.660,246.409 312.886 C 246.400 360.606,246.385 361.580,245.626 361.986 C 244.460 362.610,217.108 362.548,216.480 361.920 C 215.781 361.221,215.781 138.779,216.480 138.080 C 217.200 137.360,365.374 137.397,366.800 138.118 " stroke="none" fill="#141c34" fill-rule="evenodd"></path></g></svg>